<svg width="240" height="74" xmlns="http://www.w3.org/2000/svg">
 <style type="text/css">.st0{fill:#FFD666;}</style>

 <g>
  <title>Layer 1</title>
  <g id="svg_1">
   <path id="svg_2" d="m147.11,23.92c0.07,0 0.14,0 0.21,0.01l0,-18.46c0,-2.89 -2.34,-5.23 -5.23,-5.23l-136.18,0c-2.89,0 -5.23,2.34 -5.23,5.23l0,18.46c0.07,0 0.14,-0.01 0.22,-0.01c5.89,0 10.66,5.41 10.66,12.09c0,6.68 -4.77,12.09 -10.66,12.09c-0.07,0 -0.14,0 -0.22,-0.01l0,20.44c0,2.89 2.34,5.23 5.23,5.23l136.18,0c2.89,0 5.23,-2.34 5.23,-5.23l0,-20.43c-0.07,0 -0.14,0.01 -0.21,0.01c-5.89,0 -10.66,-5.41 -10.66,-12.09c0,-6.68 4.78,-12.1 10.66,-12.1zm-113.88,30.88l-6.64,-12.68l-0.05,0l0,12.68l-11.08,0l0,-35.35l16.48,0c8.89,0 13.43,5.09 13.43,11.59c0,4.64 -2.6,8.59 -7.64,10.24l7.69,13.53l-12.19,0l0,-0.01zm26.77,0l-11.09,0l0,-35.35l11.09,0l0,35.35zm29.96,-26.56l-13.88,0l0,4.89l9.99,0l0,8.34l-9.99,0l0,13.33l-11.09,0l0,-35.35l24.97,0l0,8.79zm4.05,42.54c0,0.48 -0.39,0.87 -0.87,0.87s-0.87,-0.39 -0.87,-0.87l0,-6.14c0,-0.48 0.39,-0.87 0.87,-0.87s0.87,0.39 0.87,0.87l0,6.14zm0,-12.29c0,0.48 -0.39,0.87 -0.87,0.87s-0.87,-0.39 -0.87,-0.87l0,-6.14c0,-0.48 0.39,-0.87 0.87,-0.87s0.87,0.39 0.87,0.87l0,6.14zm0,-12.28c0,0.48 -0.39,0.87 -0.87,0.87s-0.87,-0.39 -0.87,-0.87l0,-6.14c0,-0.48 0.39,-0.87 0.87,-0.87s0.87,0.39 0.87,0.87l0,6.14zm0,-12.29c0,0.48 -0.39,0.87 -0.87,0.87s-0.87,-0.39 -0.87,-0.87l0,-6.14c0,-0.48 0.39,-0.87 0.87,-0.87s0.87,0.39 0.87,0.87l0,6.14zm0,-12.28c0,0.48 -0.39,0.87 -0.87,0.87s-0.87,-0.39 -0.87,-0.87l0,-6.14c0,-0.48 0.39,-0.87 0.87,-0.87s0.87,0.39 0.87,0.87l0,6.14zm0,-12.29c0,0.48 -0.39,0.87 -0.87,0.87s-0.87,-0.39 -0.87,-0.87l0,-6.14c0,-0.48 0.39,-0.87 0.87,-0.87s0.87,0.39 0.87,0.87l0,6.14zm20.84,45.8c-10.04,0 -18.23,-7.54 -18.23,-18.18c0,-10.64 8.19,-18.13 18.23,-18.13c10.09,0 18.13,7.49 18.13,18.13c0,10.64 -8.14,18.18 -18.13,18.18z" class="st0"/>
   <path id="svg_3" d="m30.94,28.74l-4.39,0l0,5.99l4.39,0c2.1,0 3.2,-0.9 3.2,-3c-0.01,-1.8 -1.11,-2.99 -3.2,-2.99z" class="st0"/>
   <path id="svg_4" d="m114.85,29.08c-4.54,0 -6.94,3.1 -6.94,7.89c0,4.69 2.4,7.84 6.94,7.84c4.44,0 6.89,-3.15 6.89,-7.84c0,-4.79 -2.44,-7.89 -6.89,-7.89z" class="st0"/>
  </g>
 </g>
</svg>