<svg width="241" height="50" viewBox="0 0 241 50" fill="none" xmlns="http://www.w3.org/2000/svg">
<path d="M141.807 16.5313H153.412V22.1413C154.255 19.978 155.392 18.383 156.822 17.3563C158.288 16.293 159.993 15.7613 161.937 15.7613L163.532 24.7263C160.048 24.7263 157.482 25.1113 155.832 25.8813C154.218 26.6146 153.412 27.788 153.412 29.4013V43.7013H141.807V16.5313ZM176.033 44.1413C172.953 44.1413 170.551 43.1513 168.828 41.1713C167.104 39.1913 166.243 36.4963 166.243 33.0863V16.1463H177.903V32.5913C177.903 33.4346 178.123 34.0946 178.563 34.5713C179.039 35.0113 179.644 35.2313 180.378 35.2313C181.111 35.2313 181.863 35.0113 182.633 34.5713L183.238 42.2163C182.431 42.8396 181.368 43.3163 180.048 43.6463C178.764 43.9763 177.426 44.1413 176.033 44.1413ZM172.073 12.0213C170.349 12.0213 168.883 11.4896 167.673 10.4263C166.499 9.32631 165.913 7.98797 165.913 6.41131C165.913 4.83464 166.536 3.51464 167.783 2.45131C169.029 1.38797 170.459 0.856307 172.073 0.856307C173.759 0.856307 175.208 1.40631 176.418 2.50631C177.664 3.60631 178.288 4.90797 178.288 6.41131C178.288 8.02464 177.664 9.36298 176.418 10.4263C175.171 11.4896 173.723 12.0213 172.073 12.0213ZM188.101 22.9663H184.636V16.1463H188.101V13.8363C188.101 9.76631 189.072 6.68631 191.016 4.59631C192.996 2.50631 195.746 1.46131 199.266 1.46131C202.089 1.46131 204.711 2.17631 207.131 3.60631L206.746 11.0313C204.619 10.188 202.841 9.76631 201.411 9.76631C200.311 9.76631 199.467 10.0413 198.881 10.5913C198.294 11.1046 198.001 11.8563 198.001 12.8463C198.001 13.7996 198.312 14.8996 198.936 16.1463H206.636V22.9663H199.706V43.7013H188.101V22.9663ZM223.733 44.1413C220.653 44.1413 217.903 43.5363 215.483 42.3263C213.099 41.1163 211.229 39.448 209.873 37.3213C208.553 35.158 207.893 32.683 207.893 29.8963C207.893 27.1096 208.571 24.653 209.928 22.5263C211.284 20.363 213.154 18.6946 215.538 17.5213C217.958 16.348 220.708 15.7613 223.788 15.7613C226.904 15.7613 229.654 16.3663 232.038 17.5763C234.458 18.7496 236.328 20.3996 237.648 22.5263C238.968 24.653 239.628 27.1096 239.628 29.8963C239.628 32.7196 238.949 35.213 237.593 37.3763C236.273 39.503 234.403 41.1713 231.983 42.3813C229.599 43.5546 226.849 44.1413 223.733 44.1413ZM223.843 35.8913C225.346 35.8913 226.574 35.3413 227.528 34.2413C228.518 33.1046 229.013 31.6563 229.013 29.8963C229.013 28.1363 228.518 26.7063 227.528 25.6063C226.574 24.4696 225.346 23.9013 223.843 23.9013C222.339 23.9013 221.093 24.4696 220.103 25.6063C219.149 26.7063 218.673 28.1363 218.673 29.8963C218.673 31.6563 219.149 33.1046 220.103 34.2413C221.093 35.3413 222.339 35.8913 223.843 35.8913Z" fill="white"/>
<path d="M18.5556 2H81.0555C82.5122 8.6531 89.436 18.705 95.0555 2H113.056C113.056 2 123.056 8.22128 120.556 27.5072C123.056 43.6826 113.056 48.6596 113.056 48.6596H95.0555C92.0899 41.7245 87.0406 34.7441 81.0555 48.6596H18.5556H6.55556C-5.94444 21.9081 6.55556 2 6.55556 2H18.5556Z" fill="#FFD666"/>
<path d="M18.5556 2H81.0555C82.5122 8.6531 89.436 18.705 95.0555 2H113.056C113.056 2 123.056 8.22128 120.556 27.5072C123.056 43.6826 113.056 48.6596 113.056 48.6596H95.0555C92.0899 41.7245 87.0406 34.7441 81.0555 48.6596H18.5556H6.55556C-5.94444 21.9081 6.55556 2 6.55556 2H18.5556Z" fill="#FFD666"/>
<path d="M113.056 2H95.0555C89.436 18.705 82.5122 8.6531 81.0555 2H18.5556H6.55556C6.55556 2 -5.94444 21.9081 6.55556 48.6596H18.5556H81.0555C87.0406 34.7441 92.0899 41.7245 95.0555 48.6596H113.056C113.056 48.6596 123.056 43.6826 120.556 27.5072M113.056 2C115.556 10.5024 120.556 27.5072 120.556 27.5072M113.056 2C113.056 2 123.056 8.22128 120.556 27.5072" stroke="#FFD666"/>
<path d="M34.5233 30.3464C33.2772 30.3464 32.567 31.6821 33.29 32.6465C36.1012 36.4032 40.7497 38.8526 46.0021 38.8526C51.2546 38.8526 55.8988 36.3992 58.71 32.6465C59.433 31.6821 58.7228 30.3464 57.4767 30.3464H34.5233Z" fill="white"/>
<path d="M41.3547 22.9034H33V17.5871C33 14.6523 34.8713 12.2708 37.1774 12.2708C39.4834 12.2708 41.3547 14.6523 41.3547 17.5871V22.9034Z" fill="white"/>
<path d="M59 22.9035H50.6453V17.5871C50.6453 14.6523 52.5166 12.2708 54.8227 12.2708C57.1287 12.2708 59 14.6523 59 17.5871V22.9035Z" fill="white"/>
</svg>
